<?xml version="1.0" encoding="utf-8"?>
<!-- Generator: Adobe Illustrator 22.1.0, SVG Export Plug-In . SVG Version: 6.00 Build 0)  -->
<svg version="1.1" xmlns="http://www.w3.org/2000/svg" xmlns:xlink="http://www.w3.org/1999/xlink" x="0px" y="0px"
	 viewBox="0 0 1412.1 167.2" style="enable-background:new 0 0 1412.1 167.2;" xml:space="preserve">
<style type="text/css">
	.st0{fill:#EEEEEE;}
	.st1{opacity:5.000000e-02;}
	.st2{fill:#222222;}
	.st3{fill:#FFFFFF;}
	.st4{fill:#F7EC13;}
	.st5{fill:#333433;}
	.st6{fill:#2F2F2F;}
	.st7{fill:#565656;}
	.st8{opacity:0.5;fill:#222222;}
	.st9{fill:#EB4A24;}
	.st10{opacity:0.2;}
	.st11{fill:none;stroke:#EB4A24;stroke-width:6;stroke-miterlimit:10;}
	.st12{display:none;}
	.st13{display:inline;}
	.st14{opacity:0.15;fill:#3953A4;}
</style>
<g id="Background">
	<g>
		<g class="st1">
			<path class="st2" d="M1412.1,121.8c-3.2,0.5-5.3,3-9,3.2c-9.6,0.6-16.6-3.3-22.9-9.8c-2.1-2.1-4.2-4.3-6.2-6.5
				c-0.5-0.6-0.8-1.5-1.7-1.5c-6.6,0-12.4-4.7-19.4-3.2c-3.6,0.7-7.6,0.8-11.2,0c-6.1-1.3-10.6,4.3-16.5,3.3c-0.3,0-0.7,0.6-1.1,0.9
				c-1.6,1.5-3.1,3-4.7,4.5c-1.5-3.1-5.4-2-7.5-4.3c-1.8-2-12.1-1.6-14.3-0.3c-4.7,2.7-9.2,5.6-12.6,10c-1.2,1.6-3.7,0.5-5.6,0.7
				c-1,0.1-2.1,0.1-2.2,1.3c-0.1,1.3,1,1.3,2,1.6c2,0.5,6-1.2,5.8,1.4c-0.3,3.1-4.3,1.4-6.7,1.5c-6.2,0.2-12.4,0.1-18.6,0.1
				c-1.2,0-3-0.4-3,1.5c0,1.6,1.5,1.3,2.6,1.4c1.1,0.1,2.6,0,2.5,1.6c-0.1,1.5-1.6,1.4-2.7,1.4c-6.7,0-13.4-0.1-20.1,0
				c-3.2,0-6.1-2.3-7.8-3.6c-3.4-2.7-6.6-1.9-9.9-2.3c-7-0.8-13.4,0.6-18.8,5.4c-0.5,0.5-1.5,0.5-2.3,0.5c-4.7-0.3-8.1,2.6-11.7,4.9
				c-1.8,1.1-4,1.7-4.8,0.5c-2-3-4.8-2.7-7.4-2.3c-7,1.2-12.5-1.3-16.6-6.8c-1.5-2-3-2.2-4.9-2.1c-5.9,0-11.8,0-17.7,0
				c-1.7,0-3.7-0.5-4.6,1.8c-0.3,0.8-1.5,1.3-2,0.6c-2.3-3.4-5.7-5-9.4-6.6c-4.2-1.8-7.6-5-12.7-4.8c-5.9,0.3-11.8,0.4-17.6,0
				c-5.7-0.4-9.8,3.5-14.6,4.8c-5.2,1.4-7,7.5-12.8,7.1c-5.6-0.4-11.4-4.4-13.2-9.8c-0.2-0.6-0.5-1.6-0.9-1.6
				c-7-0.5-13.9-6.3-20.6-2.9c-3.9,1.9-7.4,2.2-11.3,2.5c-2.3,0.2-3.1,1.1-1,2.8c0.6,0.5,1.4,0.9,1.1,1.9c-0.4,1.2-1.5,1.1-2.4,1.1
				c-5.9,0-11.8,0-17.6,0c-1,0-2,0.1-2.7-0.8c-2.4-3.4-6.4-3.9-9.7-5.6c-4-2-9.1-0.7-12.3-4.8c-1.4-1.7-12-0.4-13.8,1.1
				c-0.5,0.4-1.1,1.2-1.5,1.1c-5.1-1.4-8.5,4.3-13.5,3.2c-1-0.2-1.9,0.2-2.5,1.2c-2.6,4.7-6.9,4.8-11.6,4.7
				c-12.4-0.2-24.8,0-37.3-0.1c-1.3,0-3.6,0.7-3.7-1.3c-0.1-2.5,2.4-1.5,3.8-1.6c3.3-0.1,6.5,0,9.8-0.1c1.2,0,3.1,0.4,3.2-1.4
				c0.1-1.9-1.8-1.4-3-1.5c-2.1-0.2-4.7,0.8-5.9-2.2c-0.1-0.2-0.7-0.5-0.8-0.5c-3.8,4.8-7.1-2.2-11-0.5c-1.3,0.6-4.9,1.1-4.9-1.2
				c0.1-3,3.4-1.4,5.2-1.5c2.9-0.3,5.9-0.1,8.8-0.1c0.9,0,2.1,0.2,2.6-0.9c0.6-1.2-0.7-1.5-1.3-2.2c-2.4-2.7-4.6-4.7-7.6-0.6
				c-1.1,1.5-3.4,0.8-5.1,0.7c-7.9-0.5-15,1.5-21.7,5.5c-0.6,0.4-1.6,0.6-2.4,0.4c-6.6-1.8-12.1,3.3-18.4,3.1c-1.2,0-1.5,1-2.1,1.8
				c-0.7,1-2.2,1.1-2.3,0c-0.2-2.8-2.9-4.6-3-6.6c-0.3-4.6-3.2-3.5-5.9-4.3c-4.2-1.3-7.9-3.1-12.6-2.9c-4.7,0.2-8,4.2-13,3.7
				c-1.8-0.2-0.7,4.9-3.8,6.5c-1.6,0.9-1.7,2-3.5,0.1c-5.4-6-12.6-8.5-20.4-7c-4.2,0.8-8.3,3.2-11.5,6.5c-2.7,2.7-9.4,3.2-12,0.5
				c-1.4-1.5-2.9-1.3-4.4-1.3c-7.8,0-15.7,0-23.5,0c-4.3,0-7.4,4.6-12.1,3.2c-0.5-0.1-1,0.7-0.9,1.4c0.2,1,1.1,1,1.9,1.2
				c1.2,0.3,3.6-0.6,3.2,1.8c-0.3,1.9-2.4,1.2-3.8,1.2c-9,0.1-18,0-27,0c-1.3,0-2.8,0.4-3.7-0.8c-2.1-3-4.3-3.1-6.5-0.2
				c-0.4,0.5-1,1.1-1.6,0.7c-4.9-3.5-11.5-3.8-15.7-9.1c-2.3-3-6.3-5-10.8-5.3c-4.3-0.3-7.7-4.2-12.6-2.9c-2.3,0.6-5.2-0.7-6.9,2.4
				c-0.6,1.2-2.4,0.6-3.7,0.6c-5.4,0-10.8,0-16.2,0c-1.1,0-2.6-0.1-2.6,1.5c0,1.6,1.5,1.4,2.7,1.4c2.3,0,4.6-0.1,6.9,0.1
				c1.6,0.2,4.3-1.1,4.3,1.5c0,2.1-2.6,1.3-4.1,1.3c-5.1,0.1-10.1,0-15.2,0.1c-1.3,0-3.5-0.7-3.3,1.7c0.1,1.7,2.2,1.5,3.2,1.2
				c5.8-1.6,9.9,4.4,15.5,3.2c0.6-0.1,1.1,0.6,1,1.4c-0.1,0.7-0.6,1.2-1.3,1.2c-1.3,0.1-2.6,0.1-3.9,0.1c-2.5,0.2-4.8-0.4-7,2.1
				c-1.5,1.8-5.7,1.8-7.2,0c-2.2-2.6-4.5-2.1-7-2.2c-2.4-0.1-4.9,0.5-6.4-2.3c-0.3-0.6-2.1-0.7-3.2-0.6c-6.2,0.9-13-2.5-18.5,2.8
				c-0.2,0.2-0.6,0.1-1,0.1c-8.8-1-14.8,4-20.2,9.7c-1.6,1.7-3,2.1-5,2.1c-4.2,0-8.5-0.2-12.7,0c-5,0.3-8.9-0.5-12.7-4.8
				c-4.8-5.5-13.5-5-21.2-1.6c-4.4,2-8.9,4.5-14.4,3.6c-4.5-0.7-9.1-0.2-13.7-0.1c-2.5,0-4.9-0.5-6.9,2.2c-1.5,2-14.6-0.1-17.1-1
				c-8-2.8-12.8-10-20.7-13.4c-9-3.9-17.7-1.6-26.4-2.4c-3-0.3-7-1.9-9.2,2.3c-0.1,0.2-0.8,0.3-0.8,0.3c-2.1-4.8-8.1-0.6-10.8-4.7
				c-1.4-2-12.1-1.1-14.2,0.6c-0.4,0.3-0.7,1.1-1,1c-5.2-0.8-7.9,1.8-9.7,6.4c-1.1,2.9-3.8,3-6.5,2.8c-2.4-0.1-4.9-0.3-7.3,0
				c-6.4,0.9-11.1-1.3-15.6-6c-3.6-3.8-8.4-6.3-14.1-5.9c-1.9,0.1-3.9,0.4-5-2c-0.7-1.4-2.3-0.9-3.6-0.9c-3.8,0-7.5,0-11.3,0
				c-2.2,0-4.2-0.2-6,2.1c-1.5,1.9-4.6,0.5-7,0.8c-3.3,0.5-4.3-1.3-4.3-4.3c0-0.5-0.7-1.3-1.2-1.3c-6.6-0.1-12.5-5.4-19.4-3.1
				c-3.3,1.1-6.1,3.6-10.1,2.9c-4.3-0.7-7.8-4.2-12.4-3.5c-0.3-3.2-2.9-5.4-3.8-8.3c-0.3-0.9-0.1-2.5-1-2.5c-7-0.5-14-6.4-20.6-2.9
				c-4.7,2.5-5.6,0.1-7.8-2c-5.2-5-15.3-6-21.2-2c-1.2,0.8-2.5,0.6-3.8,0.6c-3.6,0-7.2-0.1-10.8,0.1c-2.3,0.1-3.1,1.1-1,2.8
				c0.6,0.5,1.4,0.9,1.1,1.9c-0.4,1.2-1.5,1.1-2.5,1.1c-4.6,0-9.2,0.6-13.7-0.1c-5.4-0.8-9.7,2.1-14.5,3.3c-0.7,0.2-1.1,0.7-1,1.4
				c0.1,0.7,0.6,1.1,1.3,1.2c0.5,0.1,1,0,1.5,0.1c1.8,0.6,5.2-1.4,5.1,1.7c-0.1,2.3-3.6,1.1-5.5,1.2c-2.8,0.2-5.6,0-8.3,0.1
				c-1.1,0-2.7-0.2-2.7,1.3c-0.1,2,1.7,1.5,2.9,1.6c2.9,0.1,5.9,0,8.8,0.1c1,0,2.1,0.1,2.2,1.4c0.1,1.3-1.1,1.4-2.1,1.5
				c-1.2,0.2-3.2-0.4-3.1,1.5c0.1,2.1,2.2,1.4,3.5,1.5c1.6,0.1,3.3,0,4.9,0.1c1.1,0,2.6-0.1,2.5,1.5c-0.1,1.6-1.6,1.4-2.7,1.4
				c-7.4,0-14.7,0-22.1,0.1c-1.4,0-3.9-0.9-3.8,1.6c0,2,2.3,1.3,3.6,1.3c7-0.1,13.2,4.9,20.4,3.1c0.8-0.2,1.7,0.4,1.6,1.4
				c-0.1,1.3-1.2,1.4-2.2,1.4c-3.8,0-7.5,0-11.3,0.1c-1.3,0-3.4-0.7-3.4,1.6c0.1,1.8,2,1.2,3.2,1.3c0.8,0.1,1.6,0,2.4,0
				c0.9,0.1,2.2-0.1,2.3,1.2c0.2,1.7-1.2,1.7-2.3,1.7c-7.2,0-14.4,0-21.6,0.1c-2,0-4.2-0.6-5.5,2c-0.7,1.4-3.3,1.5-3.9,0.6
				c-3.6-4.4-8.4-2.1-12.7-2.7c-1.2-0.2-3.1,0.4-3.2-1.4c-0.1-1.9,1.8-1.4,3-1.6c1-0.1,2.2-0.1,2.2-1.4c0-1.7-1.5-1.5-2.6-1.5
				c-5.6,0-11.1,0-16.7-0.1c-1.3,0-3.4,0.7-3.5-1.5c-0.1-1.9,1.9-1.3,3.1-1.5c1-0.1,2.1-0.2,2.1-1.5c-0.1-1.2-1.2-1.5-2.2-1.4
				c-6.4,0.8-11.1-2.6-16.4-5.4c-2.7-1.4-7.6-2.4-10.7,1.4c-0.2,0.2-0.5,0.7-0.7,0.6c-5.2-1.2-8.8,4.1-14,3.4
				c-2.3-0.3-4.7-0.5-6.4,2.2c-0.9,1.5-3.4,0.5-5.1,0.7c0-15.7,0-31.4,0-47.1c4.6,0,9.2,0.2,13.7-0.1c3.8-0.2,7.9,1.3,11.3-2.5
				c1.1-1.3,4.7-0.3,7.1-0.4c1.1-0.1,2.7,0.3,2.7-1.3c0.1-2-1.7-1.6-2.9-1.6c-3.1-0.1-6.2,0-9.3-0.1c-0.9,0-1.7-0.3-1.8-1.3
				c-0.1-0.7,0.3-1.2,1.1-1.4c4.5-1,8.4-3.8,13.5-3.4c4.6,0.3,7.6,3.2,11.4,4.6c0.8,0.3,2,2,2.7,1.4c4.1-3.6,7.9,0.3,11.9,0.1
				c4.7-0.2,9.5,0,14.2-0.1c1.3,0,2.8,0.3,3.5-1.2c1-2.2,2.9-1.7,4.6-1.8c8,0,16,0,24,0c1.3,0,3.5,0.7,3.5-1.5
				c-0.1-2.1-2.3-1.2-3.6-1.4c-0.5-0.1-1,0-1.5,0c-1.2-0.1-3.1,0.4-2.9-1.6c0.1-1.8,2-1.3,3.2-1.3c3.6-0.1,7.2,0.1,10.8-0.1
				c2.5-0.1,5.2,0.8,6.9-2.2c0.7-1.3,2.7-0.7,4.2-0.7c6.2,0,12.4,0,18.6,0c1.1,0,2.6,0.1,2.6-1.4c0-1.6-1.5-1.4-2.6-1.5
				c-4.7,0-9.5,0-14.2,0c-1.2,0-3.1,0.4-3-1.5c0.1-1.8,1.9-1.4,3.1-1.4c7.4,0,15.1-1.5,21.9,0.5c5.4,1.6,11.4,1.4,16.7,4.6
				c2.9,1.7,7.2,2.9,10.6,4.2c13.5,5.2,27.2,1.1,40.6,2.6c1.3,0.1,3.5-0.7,3.3,1.7c-0.1,1.7-2,1.2-3.3,1.2c-2,0.1-3.9,0-5.9,0.1
				c-0.8,0-1.7,0.2-1.8,1.3c-0.1,1.4,1,1.6,2,1.6c3.8,0.1,7.5,0,11.3,0.1c1.3,0,3.5-0.7,3.6,1.4c0.1,2.2-2.1,1.4-3.4,1.5
				c-1,0.1-2,0-2.9,0.1c-0.9,0.1-1.7,0.4-1.7,1.4c0,1,0.8,1.4,1.6,1.4c6.5,0,14.1,2.1,19.4-0.5c6.7-3.2,12.9-1.4,19.2-2.4
				c1.2-0.2,3,0.4,3.2-1.3c0.2-2-1.7-1.5-2.9-1.6c-0.9-0.1-2.2,0-2.2-1.3c-0.1-1.7,1.4-1.4,2.5-1.6c3.2-0.7,7.3,1.9,9.7-2.5
				c0.5-0.9,2.9-1.2,1.5-2.7c-1.1-1.3-3.3-1.2-4.5-0.1c-3.5,3.4-6.7,3.7-10.2,0c-1.3-1.4-3.4-0.5-5.2-0.7c-1.1-0.1-2.6,0.1-2.6-1.5
				c0-1.5,1.5-1.4,2.6-1.4c7.5,0,15,0,22.6,0c1.3,0,2.6,0,3.9,0c1.1-0.1,2.6,0.1,2.5-1.5c-0.1-1.6-1.6-1.3-2.7-1.4
				c-3.8,0-7.5,0-11.3-0.1c-1.2,0-3,0.4-2.9-1.6c0.1-1.5,1.7-1.3,2.8-1.3c5.6,0,11.1,0,16.7,0c1.1,0,2.5,0.4,3.2-0.8
				c0.9-1.5-0.9-1.7-1.4-2.5c-1.7-2.5,0.4-2.6,2-2.6c4.2-0.1,8.5,0,12.7,0c4.2,0,8.5,0.2,12.7,0c8.2-0.5,15.5,1.8,22.7,5.5
				c7.7,4,14.8,8.6,20.8,14.9c2.1,2.2,1.1,6,4.3,7.4c-0.3,0.5-0.6,1.1-1.1,1.5c-2.7,2-1.4,2.7,1,3c1.2,0.2,3.1-0.3,2.9,1.6
				c-0.2,1.8-2,1.2-3.2,1.3c-2.6,0.1-5.2,0-7.8,0.1c-1.1,0-2.6-0.3-2.8,1.2c-0.2,2,1.6,1.7,2.8,1.7c7.4,0.1,14.7,0,22.1,0
				c3.6,0,7.2,0,10.8,0c2,0,4.2,0.6,5.5-2c0.9-1.6,3-0.9,4.6-0.9c10.1,0,20.3,0,30.4,0c2.3,0,4.8,0.7,6.4-2.2c0.8-1.4,3-1.1,4.5-0.2
				c5.8,3.4,9.8,3.4,16.4-0.1c0.5-0.3,1.6-0.6,1.9-0.3c4.7,4.3,9.1-1,13.9-0.3c5.3,0.8,10.8,0.2,16.1,0.2c2.2,0,4.5,0.7,6-2.1
				c0.7-1.4,2.7-0.8,4.1-0.8c6.2,0,12.4,0,18.6,0c1.1,0,2.6,0.3,2.8-1.2c0.2-2-1.6-1.6-2.8-1.7c-2-0.1-3.9,0-5.9-0.1
				c-1,0-2.2,0-2.3-1.3c-0.1-1.7,1.3-1.5,2.4-1.6c1.6-0.1,3.3,0.1,4.9-0.1c1.3-0.1,3.5,0.7,3.6-1.4c0.1-2.2-2.1-1.5-3.4-1.5
				c-8-0.1-16,0-24,0c-1,0-2,0.1-2.9,0c-1.5-0.2-4,0.8-4-1.4c0-2.3,2.5-1.4,4-1.4c5.9-0.1,11.8,0,17.6-0.1c1.7,0,3.7,0.5,4.6-1.8
				c0.2-0.6,1.1-1.2,1.5-0.8c4.1,4.5,7.5-2.1,12-0.6c4.1,1.3,9.1,0.3,13.6,0.2c0.9,0,1.7-0.4,1.8-1.3c0-1.3-1-1.4-2.1-1.6
				c-1.2-0.2-3.1,0.4-3.1-1.4c0.1-2.2,2.2-1.4,3.5-1.5c2.6-0.1,5.2,0,7.8-0.1c1.1,0,2.6,0.1,2.6-1.5c0-1.6-1.5-1.4-2.6-1.4
				c-5.9,0-11.8,0-17.6,0c-1.1,0-2.3,0-3.4,0c-1,0-2.1-0.2-2-1.5c0.1-1.3,1.2-1.3,2.2-1.4c4.2,0,8.5,0,12.7,0c1.8,0,3.6,0,5.4,0
				c1,0,2.1,0.1,2.4-1.1c0.3-1-0.4-1.5-1.2-1.8c-0.8-0.4-1.4-0.9-1-1.9c0.5-1.2,1.6-1,2.5-1c6.5,0,13.1,0,19.6-0.1
				c1.3,0,3.4,0.7,3.5-1.4c0.1-1.9-1.9-1.3-3-1.5c-1-0.1-2.1-0.2-2.1-1.5c0-1.3,1.2-1.4,2.2-1.4c2.6,0,5.2,0.1,7.8-0.1
				c1.4-0.1,4,0.9,3.9-1.5c-0.1-2.2-2.6-1.2-4.1-1.3c-2.4-0.2-4.9,0-7.4-0.1c-1,0-2.1,0.1-2.4-1.1c-0.3-1,0.4-1.5,1.2-1.8
				c0.8-0.4,1.4-0.9,1-1.9c-0.5-1.2-1.6-1-2.5-1c-4.4,0-8.8,0.1-13.2-0.1c-2.9-0.1-6.2,1.2-8.3-2.4c-0.3-0.6-2.6-0.8-3.2-0.3
				c-5.4,5.3-12,2-18,2.7c-2.8,0.3-6.2,1.1-8.3-2.3c-0.4-0.7-2.4-0.5-3.7-0.5c-5.7,0-11.4,0-17.2-0.1c-1.5,0-4.1,0.8-4.1-1.3
				c0-2.7,2.8-1.5,4.3-1.5c13.7-0.1,27.5,0,41.2-0.1c2.8,0,5.6,0.8,7.9-2.3c1.3-1.7,4.4-0.8,6.6-0.6c4.9,0.6,10.4-2.2,14.6,2.6
				c0.5,0.6,2.2,0.2,3.3,0.3c2.8,0.2,5.1,0.7,7.9,2.1c4.4,2.3,10.2,1,15.4,0.5c1.4-0.1,1.4-1.6,0.1-2.5c-0.8-0.5-1.9-0.9-1.3-2.2
				c0.5-1.1,1.6-1,2.6-0.9c7.4,0.8,13.8-5.1,21.4-3c7.2-5.6,15.6-2.5,23.3-2.6c4.9-0.1,10.1,2,14.5,4.9c1.6,1,3.1,0.7,4.7,0.7
				c4.4,0.1,8.8,0,13.2,0.1c1,0,2,0.3,1.9,1.6c-0.1,1-1,1.2-1.9,1.2c-3.1,0-6.2,0-9.3,0.1c-1.1,0-2.7-0.3-2.7,1.3
				c-0.1,2,1.7,1.6,2.9,1.6c2.6,0.1,5.2,0,7.8,0.1c2.6,0.1,5.5-0.8,7.4,2.3c0.7,1.2,2.8,0.6,4.2,0.6c11.6,0,23.2,0,34.8,0.1
				c1.4,0,3.9-0.9,3.8,1.6c-0.1,2-2.3,1.2-3.7,1.3c-2.8,0.1-5.6,0-8.3,0.1c-0.8,0-1.7,0.2-1.8,1.2c-0.2,1.4,0.9,1.6,1.9,1.6
				c1.8,0.1,3.6,0,5.4,0.1c1.3,0.1,3.5-0.7,3.7,1.3c0.2,2.2-2.1,1.3-3.4,1.6c-1.6,0.4-4.3-1-4.5,1.4c-0.1,1.3,2,3.3,3.5,4.1
				c2,1,5.2,1.4,6.6,0c5.1-5.1,11.1-1.6,16.6-2.3c2.3-0.3,4.5,2.1,6.4,3.3c3.6,2.2,7.8,3.3,10.8,6.9c4.3,5.2,15.3,5.9,20.7,2.3
				c0.4-0.3,1.1-0.7,1.2-0.5c4.4,4.4,8.3-1.8,12.9-0.6c4.7,1.2,10.1,0.3,15.1,0.2c1.1,0,2.5,0.1,2.3-1.7c-0.1-1.3-1.4-1.2-2.3-1.2
				c-3.1,0-6.2,0-9.3-0.1c-1,0-2.1,0-2.3-1.3c-0.2-1.3,1-1.6,1.9-1.6c6.4,0,12.7,0,19.1,0c2.3,0,2.5,3,5.2,3c4.8,0,8-2.9,11.7-4.9
				c2.9-1.6,5.8-1.9,8.2-0.3c4.8,3.2,9.5,5.8,15.5,5.1c1.1-0.1,2.3,0,3.4,0c1,0.1,2,0.3,1.9,1.6c-0.1,1-1,1.2-1.9,1.2
				c-3.1,0-6.2,0-9.3,0.1c-1.1,0-2.7-0.3-2.7,1.3c-0.1,2,1.7,1.6,2.9,1.6c12.9,0,25.8,0,38.7,0c2.3,0,4.3-0.1,5.8,2.4
				c1.9,3,5.1,3.7,8.8,3.6c6.8-0.3,13.7-0.2,20.6,0c3.2,0.1,6.9-1.3,9.3,2.5c0.4,0.6,2.2,0.3,3.3,0.4c2.9,0.3,5.8-0.7,8.4,2.3
				c1.5,1.8,5,0.4,7.6,0.6c1.1,0.1,2.7-0.3,2.7,1.3c0.1,2-1.7,1.6-2.9,1.6c-7.4,0.1-14.7,0-22.1,0.1c-1.3,0-3.5-0.7-3.6,1.3
				c-0.1,2.2,2.1,1.6,3.4,1.5c4.5-0.3,7.7,4.6,12.5,3.2c0.5-0.1,1.1,0.7,0.9,1.4c-0.2,1-1.1,1-1.9,1.2c-1.2,0.3-3.6-0.6-3.2,1.7
				c0.3,1.9,2.4,1,3.7,1.2c1,0.1,2,0.1,2.9,0.1c0.7,0.1,1.3,0.4,1.3,1.2c0.1,1-0.6,1.5-1.5,1.5c-2.4,0.1-4.9,0.1-7.3,0.1
				c-0.8,0-1.7,0-2.1,0.8c-0.6,1.2,0.5,1.5,1.2,2.2c2.3,2.1,4.9,4.1,6.7,6.6c1.3,1.8,2.6,2.2,4.5,2c4.2-0.3,7.1,2.8,10.5,4.4
				c1.4,0.7,2.7,1.5,4.3,1.4c1.5-0.1,3.9,0.9,4.3-1.1c0.4-2.6-2.2-1.4-3.6-1.8c-0.8-0.3-1.6-0.6-1.5-1.6c0.1-1,1-1.2,1.8-1.3
				c1.1,0,2.3,0,3.4-0.1c1,0,2.1,0.2,2.7-0.7c0.9-1.5-0.8-1.7-1.4-2.5c-2.4-3.2,3-2.7,2.6-5c4.3,0,7.1-3.9,11.9-3.7
				c6.6,0.2,11.7,2.9,16.3,6.8c3.5,2.9,6.9,3.4,9.6,0c3.7-4.6,8.5-3.5,13.2-3.7c1.3,0,3.5,0.7,3.7-1.2c0.3-2.3-2-1.4-3.3-1.7
				c-0.8-0.2-1.7-0.2-1.8-1.3c-0.1-1.4,0.9-1.6,1.9-1.6c2-0.1,3.9,0.1,5.9-0.1c3.6-0.4,7,0.1,10.9-2.2c3.2-1.9,9.4-2.7,13.5,1.2
				c1.4,1.4,3,0.9,4.6,1c4.4,0.1,8.8,0,13.2,0.1c1,0,2.2,0.1,2.2,1.4c0,1.3-1.1,1.3-2.1,1.5c-2,0.5-5.9-1.3-5.8,1.5
				c0.2,2.8,4.1,1.2,6.3,1.4c3.4,0.3,6.9,0,10.3,0.1c1.2,0,3-0.4,3,1.5c0,1.6-1.6,1.1-2.7,1.4c-1.8,0.5-5.2-1.4-5.2,1.6
				c0,2.3,3.2,1,5,1.3c3.3,0.6,5.3,2.5,6.1,5.6c0.3,1-0.3,2.5,1.2,2.9c1.3,0.3,1.3-1.2,2-1.7c4.8-3.4,6.2-8.8,8.8-13.7
				c2.2-4.1,6.3-7.3,9.8-10.6c3.1-3,7.4-4.1,11-6.2c9.2-5.5,18.9-1.5,28.3-2.8c4.3,4.7,11,1.4,16.1,4.9c2.2,1.6,5.3,4.5,8.7,3.8
				c6.1-1.4,12-3.9,18.4-3c0.7,0.1,1.2-0.6,1.1-1.3c-0.1-1.3-1.2-1.4-2.2-1.4c-3.9,0-7.8,0-11.8,0c-1,0-2,0.1-2.9,0
				c-1.2-0.1-3.1,0.4-2.9-1.6c0.1-1.8,2-1.3,3.2-1.3c3.6-0.1,7.2,0,10.8,0c4.1,0,8.2,0,12.3,0c1.1,0,2.5,0.1,2.4-1.6
				c-0.1-1.3-1.4-1.2-2.3-1.2c-4.9,0-9.8,0-14.7-0.1c-1.1,0-2.7,0.3-2.8-1.3c-0.1-2,1.7-1.6,2.9-1.6c2.1-0.1,4.2,0,6.4-0.1
				c0.9,0,1.7-0.3,1.8-1.3c0.1-1-0.8-1.2-1.5-1.6c-5-2.7-10.3-3.6-16-3c-1.1,0.1-2.5,0.1-2.4-1.6c0.1-1.3,1.4-1.1,2.3-1.3
				c7-1.7,13.9-4,21.4-3c1,0.1,2.1-0.1,2.1-1.4c0-1.3-1.2-1.3-2.2-1.4c-1.2-0.2-3.2,0.3-3-1.5c0.2-2,2.3-1.4,3.6-1.4
				c15.9,0,32-2,47.4,0.6c11.6,2,22.8,1.4,34.2,2.4c2.8,0.2,5.7,2.3,7.2,3.6c3.1,2.6,5.9,2.1,9,2.2c4.4,0.2,8.8,0,13.2,0.1
				c1,0,2.1,0.1,2.2,1.4c0,1.3-1.1,1.5-2.1,1.5c-2.3,0-4.6,0-6.9,0.1c-1,0-2.1,0.2-2.1,1.5c0,1.3,1.2,1.4,2.2,1.4
				c5.4,0,10.8-0.1,16.2,0.1c1.5,0,4.3-1.1,4.3,1.5c0,2.2-2.6,1-4.1,1.4c-2.3,0.6-6.4-1.7-6.5,1.7c-0.1,2.4,4.1,1.1,6.4,1.2
				c3.9,0.3,8,0.8,11.7-0.1c6.6-1.5,11.8,3.1,17.9,3.6c2.6,0.2,4.9,4.2,7.2,6.5c0.5,0.5,0.7,1.7,1.6,1.6c6.6-0.8,12.6,2.3,18.9,2.9
				c8.7,0.8,17.6,0.2,26.5,0.2c2.5,0,4.8,0.4,7-2.2c1.7-2,5.3-0.5,8-0.8C1412.1,88.4,1412.1,105.1,1412.1,121.8z M422.2,83.5
				C422.2,83.5,422.2,83.5,422.2,83.5c2.6,0,5.2,0,7.8,0c1,0,2.1-0.2,2.1-1.5c0-1-0.9-1.4-1.7-1.4c-5.5,0-11.1,0-16.6,0
				c-0.9,0-1.6,0.5-1.6,1.4c0,1,0.9,1.3,1.7,1.4C416.7,83.5,419.5,83.5,422.2,83.5z M103.6,95.3c-2.6,0-4.7,0-6.8,0
				c-1,0-2.2,0-2.3,1.3c-0.1,1.7,1.3,1.6,2.4,1.6c2.1,0.1,4.3,0.3,6.3,0c2.7-0.4,7.9,1.3,7.7-1.2C110.7,93.4,105.8,96.3,103.6,95.3z
				 M857.6,57.2c2.3-1,6.6,1.3,6.7-1.6c0-2.9-4.3-1.3-6.6-1.3c-2.3,0-6.7-1.5-6.7,1.3C850.9,58.5,855.3,56.2,857.6,57.2z
				 M1383.9,80.7c2.4-0.9,6.9,1.1,6.8-1.4c-0.1-3.5-4.5-1.4-6.9-1.5c-2.2-0.2-6.4-1.3-6.3,1.1C1377.6,82.3,1381.8,79.7,1383.9,80.7z
				 M627.9,15.9c1.4-0.6,4.1,1.1,4.2-1.7c0.1-1.9-2.3-1.4-3.6-1.3c-1.5,0.1-4.2-1.1-4.3,1.5C624.1,16.5,626.5,15.6,627.9,15.9z
				 M734.2,110.1c1.1-0.7,3.7,0.8,3.8-1.6c0-2.3-2.5-1.4-3.9-1.4c-1.4,0-3.9-0.9-4,1.4C730,110.8,732.6,109.6,734.2,110.1z
				 M160.6,57.1c1.1-0.7,3.7,0.8,3.7-1.6c0-2.2-2.5-1.4-4-1.4c-1.4,0-4-0.9-3.9,1.4C156.4,57.9,159,56.7,160.6,57.1z M1211.8,46.8
				c-0.3-1.5-1.5-1.5-2.6-1.4c-1.1,0-2.6-0.2-2.7,1.4c-0.1,1.6,1.4,1.5,2.5,1.5C1210.2,48.2,1211.4,48.4,1211.8,46.8z M103.2,121.8
				c-1.1,0.2-2.5-0.3-2.8,1.2c-0.3,1.7,1.2,1.6,2.3,1.6c1.1,0,2.6,0.3,2.8-1.2C105.8,121.7,104.3,121.9,103.2,121.8z M591,113.9
				c-0.7-1.1-2-0.9-3.3-0.9c-1,0.1-2.2,0.3-1.9,1.6c0.4,1.8,2.1,1.2,3.3,1.2C590.1,115.8,591.1,115.6,591,113.9z M96.8,114.1
				c-0.6-1.5-2.1-1.1-3.3-1.1c-1,0-2.2,0.3-1.9,1.6c0.4,1.8,2.1,1.2,3.3,1.2C95.9,115.8,96.9,115.6,96.8,114.1z M909.2,95.3
				c0.8-0.2,2.4,0.2,2.4-1.4c0-1.6-1.4-1.5-2.5-1.5c-1.1,0-2.6-0.2-2.7,1.4C906.4,95.4,907.9,95.2,909.2,95.3z"/>
			<path class="st2" d="M917.4,17.3c17.6,0,35.3,0,52.9,0c1.4,0,4,0.8,4-1.5c0-2.2-2.6-1.4-4-1.4c-7.5-0.1-15,0-22.5-0.1
				c-1.7,0-4.7,1.2-4.8-1.5c0-2.3,2.9-1.3,4.5-1.3c10.5-0.1,20.9-0.1,31.4,0c1.9,0,3.8-0.4,5.1,1.9c1,1.9,3.3,1,5,1
				c20.4,0,40.9,0.3,61.3-0.2c5.4-0.1,9.1,4.5,14.5,3.4c0.6-0.1,1.1,0.7,0.9,1.4c-0.2,1-1,1.2-1.9,1.2c-2.3,0.1-4.6,0-6.9,0.1
				c-1,0-2.2,0-2.3,1.3c-0.1,1.7,1.3,1.5,2.4,1.6c1.1,0.1,2.3,0,3.4,0c18,0,35.9,0,53.9,0c1,0,2-0.1,2.9,0c1.5,0.2,4-0.9,4.1,1.3
				c0.1,2.4-2.4,1.5-3.9,1.5c-3.3,0.1-6.5,0-9.8,0.1c-1.2,0-3.1-0.4-3.1,1.4c0,1.8,1.8,1.4,3,1.5c0.3,0,0.7,0,1,0
				c1.4,0.3,4-0.8,4,1.5c0,2.2-2.6,1.4-4,1.4c-8.7,0.1-17.3,0-26,0.1c-1.5,0-4.3-1.1-4.3,1.5c0,2.2,2.6,1.1,4.1,1.3
				c0.8,0.1,1.6,0,2.4,0.1c0.9,0.1,1.6,0.5,1.5,1.5c-0.1,0.7-0.6,1.1-1.3,1.2c-1.1,0.1-2.3,0.1-3.4,0.1c-10.6,0-21.2,0-31.9,0
				c-1.3,0-3.6-0.7-3.7,1.2c-0.2,2.5,2.3,1.4,3.7,1.7c2.4,0.5,6.9-1.1,6.8,1.3c-0.2,3.4-4.5,1.5-7,1.5c-11.8,0.2-23.5,0.1-35.3,0.1
				c-1.3,0-3.5,0.7-3.6-1.4c-0.1-2.2,2.1-1.4,3.4-1.5c2-0.1,3.9,0,5.9-0.1c0.9,0,1.7-0.4,1.7-1.4c0-1-0.8-1.4-1.7-1.4
				c-1.3-0.1-2.6-0.1-3.9-0.1c-20.4,0-40.9,0-61.3,0c-1.1,0-2.3,0-3.4,0c-1.1-0.1-2.5,0.2-2.6-1.5c0-1.3,1.2-1.3,2.2-1.4
				c1.2-0.2,3.2,0.3,3-1.6c-0.2-2-2.3-1.4-3.6-1.4c-6.7-0.1-13.4,0.1-20.1-0.1c-1.7,0-4.7,1.2-4.7-1.5c0-2.3,2.9-1.3,4.5-1.3
				c13.9-0.1,27.8,0,41.7-0.1c1.1,0,2.3,0,3.4,0c1.1-0.1,2.5,0.1,2.4-1.7c-0.1-1.3-1.4-1.2-2.3-1.2c-1.1,0-2.3,0-3.4,0
				c-25.3,0-50.7,0-76,0c-1.3,0-2.6,0-3.9-0.1c-0.8,0-1.7-0.2-1.8-1.2c-0.1-1.4,0.9-1.6,1.9-1.6c2.3-0.1,4.6,0.1,6.9-0.1
				c1.8-0.2,4.9,1,5-1.3c0.1-2.7-3.1-1.5-4.8-1.5c-11.1-0.1-22.2-0.1-33.3-0.1c-1.1,0-2.3,0-3.4-0.1c-0.9,0-1.7-0.4-1.7-1.4
				c0-1,0.8-1.4,1.6-1.4c1.3-0.1,2.6-0.1,3.9-0.1C883.1,17.3,900.2,17.3,917.4,17.3z M917.2,23.2c1.4-0.4,3.9,0.8,4.1-1.3
				c0.2-2.5-2.3-1.6-3.7-1.6c-1.5,0-3.9-0.9-4.1,1.2C913.3,24,915.8,22.8,917.2,23.2z"/>
			<path class="st2" d="M430.2,17.8c-6.5,0-13.1,0-19.6,0c-1.3,0-3.4-0.7-3.5,1.4c-0.1,1.9,1.9,1.3,3,1.5c1,0.1,2.1,0.2,2.1,1.5
				c0,1.3-1.2,1.4-2.2,1.4c-2.1,0-4.3,0-6.4,0.1c-2.3,0.1-4.8-0.8-6.4,2.2c-0.7,1.3-2.7,0.7-4.1,0.7c-12.6,0-25.2,0-37.7,0
				c-1.9,0-3.6,0.1-5.1-2c-1.4-2-4.3-0.8-6.5-0.9c-1.5,0-3.9-0.9-4.3,1.1c-0.5,2.6,2.2,1.5,3.5,1.8c0.8,0.3,1.6,0.6,1.5,1.6
				c-0.1,1-1,1.4-1.8,1.2c-5.5-1.1-11.7,2.8-16.5-2.5c-0.3-0.4-1.6-0.5-1.8-0.3c-3.5,4-6.9-0.2-10.4-0.1c-4.1,0.1-8.2,0.1-12.3,0
				c-1.3,0-3.5,0.6-3.5-1.5c0-2.1,2.2-1.3,3.6-1.4c1.3-0.1,2.6,0.1,3.9-0.1c1.3-0.1,3.5,0.6,3.4-1.5c-0.1-2-2.3-1.3-3.6-1.3
				c-11.9-0.1-23.9,0-35.8-0.1c-1.4,0-3.9,0.9-3.8-1.6c0.1-2,2.3-1.2,3.7-1.3c5.1-0.1,10.1,0,15.2-0.1c1.3,0,3.5,0.7,3.7-1.2
				c0.3-2.3-2-1.4-3.2-1.7c-1-0.2-2-0.4-1.8-1.7c0.2-1,1.1-1.2,1.9-1.2c9.3,0,19.4-2.3,27.7,0.6c10.6,3.6,20.7,1,30.9,2.3
				c1.2,0.2,3.5,0.7,3.4-1.5c-0.1-2-2.3-1-3.6-1.4c-2.4-0.7-6.9,1.8-6.9-1.6c0-2.6,4.7-0.9,7.3-1.2c3.1-0.3,6.5,0.7,9.3-0.2
				C372,2.7,391.2,7.7,410,6.1c2.2-0.2,4.4-0.6,6,2.1c0.8,1.5,3.2,1.3,4.5,0.3c4.6-3.9,9-3.8,13.6,0c0.8,0.7,2.5,0.5,3.8,0.5
				c7.8,0,15.7,0,23.5,0.1c1.3,0,3.6-0.7,3.6,1.3c0,2.4-2.4,1.5-3.8,1.6c-3.6,0.1-7.2,0-10.8,0.1c-1,0-2.1,0.1-2.2,1.4
				c-0.1,1.3,1.1,1.4,2,1.5c1.2,0.2,3.1-0.4,3.1,1.4c-0.1,2.2-2.2,1.5-3.5,1.5C443.2,17.9,436.7,17.8,430.2,17.8z"/>
			<path class="st2" d="M126.6,21.7c-4.9,0-9.8,0-14.7,0c-1.1,0-2.6-0.1-2.6,1.5c0,1.6,1.5,1.4,2.6,1.4c2.8,0,5.6,0,8.3,0
				c1.2,0,3.1-0.4,3,1.5c-0.1,1.8-1.9,1.4-3.2,1.4c-7.7,0-15.4,0-23,0c-2.3,0-4.9-0.7-6.4,2.2c-0.6,1.2-2.4,0.7-3.7,0.7
				c-6.7,0-13.4,0-20.1,0c-2,0-4.4,0.6-5.4-2.1c-0.1-0.3-0.9-0.7-1.2-0.7c-6.9,1.4-12.9-2.5-19.4-3.1c-2.1-0.2-4.2-0.4-6,2
				c-1.5,2-5.6,1.8-6.8,0.5c-3.1-3.5-6.8-2.2-10.3-2.5c-1.1-0.1-2.6,0.1-2.6-1.5c0-1.5,1.6-1.4,2.7-1.4c3.6,0,7.2,0,10.8,0
				c1.2,0,2.8,0.4,3.5-1c1.4-2.6,2.2-1.8,3.7,0.1c1.2,1.5,3.8,1.6,4.8,0.1c1.7-2.8,4.1-2.1,6.5-2.2c7.5-0.1,15,0,22.5-0.1
				c1.3,0,3.4,0.7,3.6-1.4c0.2-1.9-1.8-1.4-3-1.6c-1-0.1-2.2-0.1-2.2-1.4c0-1.6,1.5-1.5,2.6-1.5c3.4-0.1,6.9,0.2,10.3-0.1
				c4-0.3,7.7,0.3,11.8-2.2c3.6-2.2,9.5-0.8,14.4-0.6c2.8,0.1,6.4-1.6,8.2,2.3c0.1,0.2,0.7,0.4,0.8,0.3c4.5-4.4,8.8,2.9,13.4,0.3
				c0.7-0.4,2-0.2,2.5,1c0.4,1-0.3,1.5-1.1,1.9c-0.8,0.4-1.4,0.9-1.1,1.9c0.4,1.2,1.5,1.1,2.5,1.1c2.9,0,5.9,0,8.8,0
				c1.1,0,2.6-0.2,2.7,1.4c0.1,1.6-1.5,1.5-2.6,1.5C136.4,21.7,131.5,21.7,126.6,21.7C126.6,21.7,126.6,21.7,126.6,21.7z"/>
			<path class="st2" d="M1329.5,33.5c8.7,0,17.3,0,26,0c1.2,0,3.1,0.5,3.2-1.3c0.1-2.3-2.1-1.6-3.3-1.6c-4.4-0.1-8.8,0.1-13.2-0.1
				c-2.1-0.1-5.9,1.3-5.9-1.3c0.1-3,4-1.4,6.1-1.5c7.2-0.2,14.4,0.5,21.5-0.3c4.9-0.6,8.2,2.3,11.8,3.9c2.5,1.1,4.7,2,7.4,2.2
				c1,0.1,2.1,0.1,2.2,1.4c0.1,1.3-1.1,1.3-2,1.6c-2,0.5-6-1.2-5.8,1.4c0.3,3.1,4.3,1.1,6.7,1.5c1.8,0.3,3.6,0.1,5.4,0.1
				c0.9,0,1.7,0.4,1.6,1.4c0,1-0.8,1.4-1.7,1.4c-2.3,0.1-4.6,0-6.9,0.1c-1.1,0-2.5-0.2-2.5,1.5c0,1.3,1.2,1.3,2.2,1.4
				c1.2,0.2,3.1-0.3,3,1.6c-0.1,1.8-2,1.4-3.2,1.4c-11.4,0-22.9,0-34.3,0c-1.2,0-3.1,0.4-2.9-1.5c0.1-1.8,2-1.2,3.2-1.4
				c0.2,0,0.3,0,0.5,0c1.5-0.4,4.4,1,4.2-1.6c-0.1-2.3-3-1.3-4.6-1.3c-9.1-0.1-18.3-0.1-27.4-0.1c-1,0-2,0-2.9,0
				c-1.1-0.1-2.5,0.1-2.4-1.6c0.1-1.3,1.3-1.2,2.3-1.3c2.1,0,4.2,0,6.4-0.1c1,0,2.2,0,2.3-1.2c0.2-1.7-1.3-1.6-2.3-1.7
				c-6.5,0-13.1,0-19.6-0.1c-1.3,0-3.6,0.7-3.7-1.3c-0.1-2.5,2.4-1.6,3.8-1.6C1312.9,33.5,1321.2,33.5,1329.5,33.5z M1338.3,38
				c-0.2-1.6-1.5-1.5-2.6-1.5c-1.1,0-2.6-0.2-2.7,1.4c-0.1,1.6,1.4,1.5,2.5,1.5C1336.6,39.3,1337.9,39.5,1338.3,38z"/>
			<path class="st2" d="M624.7,7c-2.6,0-5.2,0-7.8,0c-0.9,0-1.7-0.4-1.7-1.4c0-1,0.7-1.4,1.6-1.4c1.8,0,3.4-0.2,4.4-2.2
				c0.6-1.2,3-1.3,3.5-0.6c2.5,3,5.8,2.8,9.2,2.9c0.7,0,1.2,0.6,1.2,1.3c0,1-0.8,1.4-1.6,1.4C630.6,7,627.6,7,624.7,7z"/>
			<path class="st2" d="M95.2,36.4c-2.4,0-4.9,0-7.3,0c-1,0-2.1-0.1-2.2-1.4c-0.1-1.3,1-1.5,2-1.5c5.2,0,10.4,0,15.6,0
				c1,0,2.2,0.1,2.2,1.4c0,1.6-1.4,1.5-2.5,1.5C100.5,36.5,97.9,36.4,95.2,36.4C95.2,36.4,95.2,36.4,95.2,36.4z"/>
			<path class="st2" d="M1005.6,11.4c-2.8,0-5.5,0-8.3,0c-0.9,0-1.7-0.4-1.7-1.4c0-1,0.8-1.4,1.7-1.4c5.5,0,11.1,0,16.6,0
				c0.9,0,1.7,0.4,1.7,1.4c0,1-0.8,1.4-1.7,1.4C1011.2,11.4,1008.4,11.4,1005.6,11.4z"/>
			<path class="st2" d="M370.9,15.8c-2.1,0-4.2,0-6.3,0c-1,0-2.1,0-2.3-1.3c-0.2-1.3,1-1.6,1.9-1.6c4.4,0,8.8,0,13.2,0
				c0.8,0,1.7,0.3,1.8,1.3c0.1,1.3-1,1.5-1.9,1.6C375.1,15.9,373,15.8,370.9,15.8C370.9,15.8,370.9,15.8,370.9,15.8z"/>
			<path class="st2" d="M373.2,3.1c-2.1-0.9-6.7,1.9-6.9-1.6c-0.1-2.6,4.7-0.9,7.2-1.2c2.2-0.3,4.5-0.1,6.8,0c1.1,0,2.5-0.1,2.4,1.6
				c-0.1,1.3-1.3,1.3-2.3,1.3C378.2,3.1,375.9,3.1,373.2,3.1z"/>
			<path class="st2" d="M39.8,57.2c-2.3-0.9-6.7,1.3-6.7-1.6c0-3,4.3-1.4,6.6-1.4c2.3,0,6.7-1.5,6.7,1.3
				C46.4,58.6,42.1,56.2,39.8,57.2z"/>
			<path class="st2" d="M1401.5,69c-2.1-1.1-6.3,1.5-6.4-1.8c-0.1-2.4,4.2-1.3,6.3-1.1c2.4,0.2,6.8-1.9,6.9,1.5
				C1408.5,70,1403.9,68.1,1401.5,69z"/>
			<path class="st2" d="M307.9,36.2c2.3,1,6.2-1.2,6.2,1.9c0,2.5-3.9,1.3-5.9,1.2c-2.6-0.2-7.3,1.7-7.4-1.5
				C300.8,35,305.7,37.5,307.9,36.2z"/>
			<path class="st2" d="M203.5,57.3c-2.2-0.8-5.7,0.9-5.7-1.5c0-3,3.6-1.4,5.6-1.5c1.7-0.1,5-1,5,1.2
				C208.3,58.5,204.8,56.1,203.5,57.3z"/>
			<path class="st2" d="M1362.3,54.2c-2-0.7-5.5,0.9-5.5-1.5c0-3,3.6-1.4,5.6-1.5c1.7-0.1,5-1,5,1.2
				C1367.3,55.5,1364,53.4,1362.3,54.2z"/>
			<path class="st2" d="M121,48.1c1.8,0.7,5-1,5,1.5c0,2.6-3.1,1.5-4.8,1.4c-2-0.1-5.8,1.4-5.8-1.3C115.4,46.8,119.2,49,121,48.1z"
				/>
			<path class="st2" d="M256.3,20.7c-1.2,0-2,0.1-2.8,0c-1.1-0.1-2.5,0.1-2.3-1.7c0.1-1.3,1.4-1.2,2.3-1.2c0.8,0,1.7-0.2,2.4,0
				c2.1,0.6,5.9-1.5,5.9,1.7C261.8,22,257.9,20.1,256.3,20.7z"/>
			<path class="st2" d="M144.3,45.4c-1.9-0.7-5.4,1-5.4-1.5c-0.1-2.9,3.4-1.4,5.2-1.5c1.9,0,5.3-1.2,5.4,1.3
				C149.5,46.6,146.1,44.6,144.3,45.4z"/>
			<path class="st2" d="M535.7,30.7c-1.9-0.7-5.5,0.9-5.5-1.5c0-3,3.6-1.4,5.6-1.5c1.7-0.1,5-1,5,1.2
				C540.7,32,537.3,29.8,535.7,30.7z"/>
			<path class="st2" d="M503.2,27.8c-1.9-0.7-5.4,1-5.4-1.5c-0.1-2.9,3.4-1.4,5.2-1.5c1.9,0,5.3-1.2,5.4,1.3
				C508.4,29,505,26.9,503.2,27.8z"/>
			<path class="st2" d="M477,21.9c-2.1-0.8-5.6,0.9-5.6-1.6c-0.1-2.9,3.4-1.4,5.2-1.5c1.9,0,5.3-1.2,5.4,1.3
				C482,23.1,478.4,20.8,477,21.9z"/>
			<path class="st2" d="M1359.4,24.8c-2-0.7-5.5,0.9-5.5-1.5c0-3,3.6-1.4,5.6-1.5c1.7-0.1,5-1,5,1.2
				C1364.4,26.1,1361,24,1359.4,24.8z"/>
			<path class="st2" d="M1129.2,23.1c1.6,0.4,4-0.5,3.9,1.4c-0.1,2.7-2.7,1.4-4.3,1.5c-1.3,0.1-3.6,0.7-3.6-1.3
				C1125.3,22,1128.1,23.9,1129.2,23.1z"/>
			<path class="st2" d="M1002.7,40.7c1.6,0.5,4.2-0.7,4,1.8c-0.2,2.1-2.7,1.2-4.1,1.2c-1.4,0-3.9,0.9-3.7-1.6
				C999,39.9,1001.5,41.4,1002.7,40.7z"/>
			<path class="st2" d="M1031.9,49.7c-1.4-0.4-3.9,0.8-3.7-1.7c0.2-2.1,2.7-1.2,4.1-1.2c1.4,0,3.9-0.9,3.7,1.6
				C1035.9,50.5,1033.4,49.3,1031.9,49.7z"/>
			<path class="st2" d="M1289.8,36.5c-1.4-0.5-3.9,0.8-3.8-1.7c0.1-2.2,2.6-1.3,4.1-1.3c1.4,0,3.9-0.9,3.8,1.5
				C1293.8,37.3,1291.3,36.1,1289.8,36.5z"/>
			<path class="st2" d="M1027.7,8.5c1.1,0.1,2.6-0.2,2.6,1.4c0,1.6-1.4,1.5-2.6,1.5c-1.1,0-2.6,0.2-2.6-1.4
				C1025.1,8.4,1026.6,8.6,1027.7,8.5z"/>
			<path class="st2" d="M1400,40.8c-0.3,1.6-1.5,1.5-2.6,1.5c-1.1,0-2.6,0.2-2.6-1.4c0-1.6,1.4-1.5,2.6-1.5
				C1398.4,39.4,1399.7,39.2,1400,40.8z"/>
			<path class="st2" d="M856.8,18.8c-0.4,1.6-1.6,1.4-2.7,1.4c-1.1,0-2.6,0.1-2.5-1.5c0.1-1.6,1.6-1.4,2.7-1.4
				C855.3,17.3,856.6,17.2,856.8,18.8z"/>
			<path class="st2" d="M679.3,16.9c0,1.7-1,1.9-2,1.9c-1.2,0-2.9,0.5-3.2-1.3c-0.3-1.3,0.9-1.5,1.9-1.6
				C677.2,15.9,678.6,15.6,679.3,16.9z"/>
			<path class="st2" d="M950,79.1c-0.4,1.6-1.6,1.4-2.7,1.4c-1.1,0-2.6,0.1-2.5-1.5c0.1-1.6,1.6-1.4,2.7-1.4
				C948.5,77.6,949.7,77.6,950,79.1z"/>
			<path class="st2" d="M129.6,24.7c1.1,0.1,2.6-0.1,2.4,1.6c-0.2,1.6-1.7,1.3-2.7,1.3c-1.1,0-2.6,0.1-2.4-1.6
				C127.1,24.4,128.6,24.8,129.6,24.7z"/>
			<path class="st2" d="M919.3,127.8c-2.3-1-6.6,1.3-6.6-1.6c0-2.9,4.3-1.3,6.7-1.3c2.3,0,6.7-1.5,6.6,1.3
				C926,129.1,921.6,126.8,919.3,127.8z"/>
			<path class="st2" d="M98.3,133.7c-2.2-0.9-6.4,1.1-6.3-1.5c0.1-3.2,4.2-1.4,6.5-1.5c2.4-0.1,6.9-1.3,6.7,1.2
				C105,135.4,100.6,132.5,98.3,133.7z"/>
			<path class="st2" d="M138.2,112.9c-1,0-1.9,0-2.9,0c-1.1-0.1-2.6,0.1-2.5-1.5c0.1-1.5,1.6-1.3,2.7-1.3c1.6-0.1,3.3-0.1,4.9,0
				c1.3,0.1,3.5-0.6,3.4,1.5c-0.1,2-2.3,1.2-3.6,1.4C139.5,113,138.8,112.9,138.2,112.9z"/>
			<path class="st2" d="M624.1,121.7c-1.4,0-2.2,0.1-3,0c-1.2-0.1-3,0.4-2.9-1.6c0.1-1.5,1.6-1.2,2.7-1.3c0.8-0.1,1.7-0.2,2.4,0
				c2,0.5,5.6-1.4,5.6,1.6C629,122.9,625.4,121,624.1,121.7z"/>
			<path class="st2" d="M691.6,127.6c-0.8,0-1.3,0.1-1.8,0c-1.4-0.3-4,0.8-3.9-1.5c0-2.2,2.5-1.2,4-1.4c0.5-0.1,1-0.1,1.5,0
				c1.9,0.4,5.3-1.2,5.3,1.5C696.6,128.8,693.2,127.1,691.6,127.6z"/>
			<path class="st2" d="M1250.8,136.5c-1,0-1.5,0.1-2,0c-1.4-0.3-4,0.8-3.9-1.5c0-2.2,2.5-1.2,4-1.4c0.5-0.1,1-0.1,1.5,0
				c1.9,0.4,5.3-1.2,5.3,1.5C1255.6,137.9,1252,135.6,1250.8,136.5z"/>
			<path class="st2" d="M1007.8,127.7c-1.4-0.4-3.9,0.8-4.1-1.4c-0.2-2.4,2.3-1.6,3.7-1.6c1.5,0,3.9-0.9,4.1,1.2
				C1011.7,128.4,1009.1,127.3,1007.8,127.7z"/>
			<path class="st2" d="M704.8,127.7c-1.6-0.5-4.2,0.7-4.1-1.6c0-2.2,2.5-1.4,4-1.4c1.4,0,3.9-0.9,3.9,1.4
				C708.5,128.6,705.9,127.1,704.8,127.7z"/>
			<path class="st2" d="M57.3,124.6c1.4,0.4,3.9-0.8,4.1,1.4c0.1,2.4-2.4,1.5-3.8,1.5c-1.4,0-3.9,0.9-4.1-1.3
				C53.3,123.9,55.9,125.1,57.3,124.6z"/>
			<path class="st2" d="M126.3,126.2c-0.4,1.5-1.6,1.4-2.7,1.4c-1.1,0-2.6,0.1-2.5-1.5c0.1-1.6,1.6-1.4,2.7-1.4
				C124.8,124.7,126,124.6,126.3,126.2z"/>
		</g>
		<path class="st3" d="M1412,167.2c0-1,0-44.3,0-45.4c-3.2,0.5-5.3,3-9,3.2c-9.6,0.6-16.6-3.3-22.9-9.8c-2.1-2.1-4.2-4.3-6.2-6.5
			c-0.5-0.6-0.8-1.5-1.7-1.5c-6.6,0-12.4-4.7-19.4-3.2c-3.6,0.7-7.6,0.8-11.2,0c-6.1-1.3-10.6,4.3-16.5,3.3c-0.3,0-0.7,0.6-1.1,0.9
			c-1.6,1.5-3.1,3-4.7,4.5c-1.5-3.1-5.4-2-7.5-4.3c-1.8-2-12.1-1.6-14.3-0.3c-4.7,2.7-9.2,5.6-12.6,10c-1.2,1.6-3.7,0.5-5.6,0.7
			c-1,0.1-2.1,0.1-2.2,1.3c-0.1,1.3,1,1.3,2,1.6c2,0.5,6-1.2,5.8,1.4c-0.3,3.1-4.3,1.4-6.7,1.5c-6.2,0.2-12.4,0.1-18.6,0.1
			c-1.2,0-3-0.4-3,1.5c0,1.6,1.5,1.3,2.6,1.4c1.1,0.1,2.6,0,2.5,1.6c-0.1,1.5-1.6,1.4-2.7,1.4c-6.7,0-13.4-0.1-20.1,0
			c-3.2,0-6.1-2.3-7.8-3.6c-3.4-2.7-6.6-1.9-9.9-2.3c-7-0.8-13.4,0.6-18.8,5.4c-0.5,0.5-1.5,0.5-2.3,0.5c-4.7-0.3-8.1,2.6-11.7,4.9
			c-1.8,1.1-4,1.7-4.8,0.5c-2-3-4.8-2.7-7.4-2.3c-7,1.2-12.5-1.3-16.6-6.8c-1.5-2-3-2.2-4.9-2.1c-5.9,0-11.8,0-17.6,0
			c-1.7,0-3.7-0.5-4.6,1.8c-0.3,0.8-1.5,1.3-2,0.6c-2.3-3.4-5.7-5-9.4-6.6c-4.2-1.8-7.6-5-12.7-4.8c-5.9,0.3-11.8,0.4-17.6,0
			c-5.7-0.4-9.8,3.5-14.6,4.8c-5.2,1.4-7,7.5-12.8,7.1c-5.6-0.4-11.4-4.4-13.2-9.8c-0.2-0.6-0.5-1.6-0.9-1.6
			c-7-0.5-13.9-6.3-20.6-2.9c-3.9,1.9-7.4,2.2-11.3,2.5c-2.3,0.2-3.1,1.1-1,2.8c0.6,0.5,1.4,0.9,1.1,1.9c-0.4,1.2-1.5,1.1-2.4,1.1
			c-5.9,0-11.8,0-17.6,0c-1,0-2,0.1-2.7-0.8c-2.4-3.4-6.4-3.9-9.7-5.6c-4-2-9.1-0.7-12.3-4.8c-1.4-1.7-12-0.4-13.8,1.1
			c-0.5,0.4-1.1,1.2-1.5,1.1c-5.1-1.4-8.5,4.3-13.5,3.2c-1-0.2-1.9,0.2-2.5,1.2c-2.6,4.7-6.9,4.8-11.6,4.7
			c-12.4-0.2-24.8,0-37.3-0.1c-1.3,0-3.6,0.7-3.7-1.3c-0.1-2.5,2.4-1.5,3.8-1.6c3.3-0.1,6.5,0,9.8-0.1c1.2,0,3.1,0.4,3.2-1.4
			c0.1-1.9-1.8-1.4-3-1.5c-2.1-0.2-4.7,0.8-5.9-2.2c-0.1-0.2-0.7-0.5-0.8-0.5c-3.8,4.8-7.1-2.2-11-0.5c-1.3,0.6-4.9,1.1-4.9-1.2
			c0.1-3,3.4-1.4,5.2-1.5c2.9-0.3,5.9-0.1,8.8-0.1c0.9,0,2.1,0.2,2.6-0.9c0.6-1.2-0.7-1.5-1.3-2.2c-2.4-2.7-4.6-4.7-7.6-0.6
			c-1.1,1.5-3.4,0.8-5.1,0.7c-7.9-0.5-15,1.5-21.7,5.5c-0.6,0.4-1.6,0.6-2.4,0.4c-6.6-1.8-12.1,3.3-18.4,3.1c-1.2,0-1.5,1-2.1,1.8
			c-0.7,1-2.2,1.1-2.3,0c-0.2-2.8-2.9-4.6-3-6.6c-0.4-4.6-3.2-3.5-5.9-4.3c-4.2-1.3-7.9-3.1-12.6-2.9c-4.7,0.2-8,4.2-13,3.7
			c-1.8-0.2-0.7,4.9-3.8,6.5c-1.6,0.9-1.7,2-3.5,0.1c-5.4-6-12.6-8.5-20.4-7c-4.2,0.8-8.3,3.2-11.5,6.5c-2.7,2.7-9.4,3.2-12,0.5
			c-1.4-1.5-2.9-1.3-4.4-1.3c-7.8,0-15.7,0-23.5,0c-4.3,0-7.4,4.6-12.1,3.2c-0.5-0.1-1,0.7-0.9,1.4c0.2,1,1.1,1,1.9,1.2
			c1.2,0.3,3.6-0.6,3.2,1.8c-0.3,1.9-2.4,1.2-3.8,1.2c-9,0.1-18,0-27,0c-1.3,0-2.8,0.4-3.7-0.8c-2.1-3-4.3-3.1-6.5-0.2
			c-0.4,0.5-1,1.1-1.6,0.7c-4.9-3.5-11.5-3.8-15.7-9.1c-2.3-3-6.3-5-10.8-5.3c-4.3-0.3-7.7-4.2-12.6-2.9c-2.3,0.6-5.2-0.7-6.9,2.4
			c-0.6,1.2-2.4,0.6-3.7,0.6c-5.4,0-10.8,0-16.2,0c-1.1,0-2.6-0.1-2.6,1.5c0,1.6,1.5,1.4,2.7,1.4c2.3,0,4.6-0.1,6.9,0.1
			c1.6,0.2,4.3-1.1,4.3,1.5c0,2.1-2.6,1.3-4.1,1.3c-5.1,0.1-10.1,0-15.2,0.1c-1.3,0-3.5-0.7-3.3,1.7c0.1,1.7,2.2,1.5,3.2,1.2
			c5.8-1.6,9.9,4.4,15.5,3.2c0.6-0.1,1.1,0.6,1,1.4c-0.1,0.7-0.6,1.2-1.3,1.2c-1.3,0.1-2.6,0.1-3.9,0.1c-2.5,0.2-4.8-0.4-7,2.1
			c-1.5,1.8-5.7,1.8-7.2,0c-2.2-2.6-4.5-2.1-7-2.2c-2.4-0.1-4.9,0.5-6.4-2.3c-0.3-0.6-2.1-0.7-3.2-0.6c-6.2,0.9-13-2.5-18.5,2.8
			c-0.2,0.2-0.6,0.1-1,0.1c-8.8-1-14.8,4-20.2,9.7c-1.6,1.7-3,2.1-5,2.1c-4.2,0-8.5-0.2-12.7,0c-5,0.3-8.9-0.5-12.7-4.8
			c-4.8-5.5-13.5-5-21.2-1.6c-4.4,2-8.9,4.5-14.4,3.6c-4.5-0.7-9.1-0.2-13.7-0.1c-2.5,0-4.9-0.5-6.9,2.2c-1.5,2-14.6-0.1-17.1-1
			c-8-2.8-12.8-10-20.7-13.4c-9-3.9-17.7-1.6-26.4-2.4c-3-0.3-7-1.9-9.2,2.3c-0.1,0.2-0.8,0.3-0.8,0.3c-2.1-4.8-8.1-0.6-10.8-4.7
			c-1.4-2-12.1-1.1-14.2,0.6c-0.4,0.3-0.7,1.1-1,1c-5.2-0.8-7.9,1.8-9.7,6.4c-1.1,2.9-3.8,3-6.5,2.8c-2.4-0.1-4.9-0.3-7.3,0
			c-6.4,0.9-11.1-1.3-15.6-6c-3.6-3.8-8.4-6.3-14.1-5.9c-1.9,0.1-3.9,0.4-5-2c-0.7-1.4-2.3-0.9-3.6-0.9c-3.8,0-7.5,0-11.3,0
			c-2.2,0-4.2-0.2-6,2.1c-1.5,1.9-4.6,0.5-7,0.8c-3.3,0.5-4.3-1.3-4.3-4.3c0-0.5-0.7-1.3-1.2-1.3c-6.6-0.1-12.5-5.4-19.4-3.1
			c-3.3,1.1-6.1,3.6-10.1,2.9c-4.3-0.7-7.8-4.2-12.4-3.5c-0.3-3.2-2.9-5.4-3.8-8.3c-0.3-0.9-0.1-2.5-1-2.5c-7-0.5-14-6.4-20.6-2.9
			c-4.7,2.5-5.6,0.1-7.8-2c-5.2-5-15.3-6-21.2-2c-1.2,0.8-2.5,0.6-3.8,0.6c-3.6,0-7.2-0.1-10.8,0.1c-2.3,0.1-3.1,1.1-1,2.8
			c0.6,0.5,1.4,0.9,1.1,1.9c-0.4,1.2-1.5,1.1-2.5,1.1c-4.6,0-9.2,0.6-13.7-0.1c-5.4-0.8-9.7,2.1-14.5,3.3c-0.7,0.2-1.1,0.7-1,1.4
			c0.1,0.7,0.6,1.1,1.3,1.2c0.5,0.1,1,0,1.5,0.1c1.8,0.6,5.2-1.4,5.1,1.7c-0.1,2.3-3.6,1.1-5.5,1.2c-2.8,0.2-5.6,0-8.3,0.1
			c-1.1,0-2.7-0.2-2.7,1.3c-0.1,2,1.7,1.5,2.9,1.6c2.9,0.1,5.9,0,8.8,0.1c1,0,2.1,0.1,2.2,1.4c0.1,1.3-1.1,1.4-2.1,1.5
			c-1.2,0.2-3.2-0.4-3.1,1.5c0.1,2.1,2.2,1.4,3.5,1.5c1.6,0.1,3.3,0,4.9,0.1c1.1,0,2.6-0.1,2.5,1.5c-0.1,1.6-1.6,1.4-2.7,1.4
			c-7.4,0-14.7,0-22.1,0.1c-1.4,0-3.9-0.9-3.8,1.6c0,2,2.3,1.3,3.6,1.3c7-0.1,13.2,4.9,20.4,3.1c0.8-0.2,1.7,0.4,1.6,1.4
			c-0.1,1.3-1.2,1.4-2.2,1.4c-3.8,0-7.5,0-11.3,0.1c-1.3,0-3.4-0.7-3.4,1.6c0.1,1.8,2,1.2,3.2,1.3c0.8,0.1,1.6,0,2.4,0
			c0.9,0.1,2.2-0.1,2.3,1.2c0.2,1.7-1.2,1.7-2.3,1.7c-7.2,0-14.4,0-21.6,0.1c-2,0-4.2-0.6-5.5,2c-0.7,1.4-3.3,1.5-3.9,0.6
			c-3.6-4.4-8.4-2.1-12.7-2.7c-1.2-0.2-3.1,0.4-3.2-1.4c-0.1-1.9,1.8-1.4,3-1.6c1-0.1,2.2-0.1,2.2-1.4c0-1.7-1.5-1.5-2.6-1.5
			c-5.6,0-11.1,0-16.7-0.1c-1.3,0-3.4,0.7-3.5-1.5c-0.1-1.9,1.9-1.3,3.1-1.5c1-0.1,2.1-0.2,2.1-1.5c-0.1-1.2-1.2-1.5-2.2-1.4
			c-6.4,0.8-11.1-2.6-16.4-5.4c-2.7-1.4-7.6-2.4-10.7,1.4c-0.2,0.2-0.5,0.7-0.7,0.6c-5.2-1.2-8.8,4.1-14,3.4
			c-2.3-0.3-4.7-0.5-6.4,2.2c-0.9,1.5-3.4,0.5-5.1,0.7c0,20.3,0,43.7,0,48.4H1412z M1248.8,133.5c0.5-0.1,1-0.1,1.5,0
			c1.9,0.4,5.3-1.2,5.3,1.5c0,2.8-3.6,0.6-4.8,1.4c-1,0-1.5,0.1-2,0c-1.4-0.3-4,0.8-3.9-1.5C1244.9,132.7,1247.4,133.8,1248.8,133.5
			z M1007.4,124.8c1.5,0,3.9-0.9,4.1,1.2c0.2,2.4-2.4,1.3-3.7,1.7c-1.4-0.4-3.9,0.8-4.1-1.4C1003.4,123.9,1006,124.8,1007.4,124.8z
			 M919.3,124.8c2.3,0,6.7-1.5,6.6,1.3c0,2.9-4.4,0.7-6.7,1.6c-2.3-1-6.6,1.3-6.6-1.6C912.6,123.3,917,124.8,919.3,124.8z
			 M704.6,124.8c1.4,0,3.9-0.9,3.9,1.4c0,2.4-2.6,0.9-3.8,1.6c-1.6-0.5-4.2,0.7-4.1-1.6C700.6,123.9,703.1,124.8,704.6,124.8z
			 M689.9,124.7c0.5-0.1,1-0.1,1.5,0c1.9,0.4,5.3-1.2,5.3,1.5c0,2.6-3.5,0.9-5,1.4c-0.8,0-1.3,0.1-1.8,0c-1.4-0.3-4,0.8-3.9-1.5
			C685.9,123.9,688.4,125,689.9,124.7z M620.9,118.8c0.8-0.1,1.7-0.2,2.4,0c2,0.5,5.6-1.4,5.6,1.6c0,2.5-3.6,0.6-4.8,1.3
			c-1.4,0-2.2,0.1-3,0c-1.2-0.1-3,0.4-2.9-1.6C618.2,118.6,619.8,118.9,620.9,118.8z M135.5,110c1.6-0.1,3.2-0.1,4.9,0
			c1.3,0.1,3.5-0.6,3.4,1.5c-0.1,2-2.3,1.2-3.6,1.4c-0.6,0.1-1.3,0-1.9,0c-1,0-1.9,0-2.9,0c-1.1-0.1-2.6,0.1-2.5-1.5
			C132.9,109.8,134.4,110,135.5,110z M123.6,124.7c1.1,0,2.4-0.1,2.6,1.5c-0.4,1.6-1.6,1.4-2.7,1.4c-1.1,0-2.6,0.1-2.5-1.5
			C121,124.5,122.5,124.7,123.6,124.7z M98.4,130.7c2.4-0.1,6.9-1.3,6.7,1.2c-0.2,3.5-4.6,0.6-6.9,1.8c-2.2-0.9-6.4,1.1-6.3-1.5
			C92,129,96.1,130.8,98.4,130.7z M57.2,124.6c1.4,0.4,3.9-0.8,4.1,1.4c0.1,2.4-2.4,1.5-3.8,1.5c-1.4,0-3.9,0.9-4.1-1.3
			C53.3,123.9,55.9,125.1,57.2,124.6z"/>
	</g>
</g>
<g id="Content">
</g>
<g id="Guides" class="st12">
</g>
</svg>
